<svg width="40" height="58" viewBox="0 0 40 58" fill="none" xmlns="http://www.w3.org/2000/svg">
<g clip-path="url(#clip0_345_6017)">
<path d="M20.0026 29.6459C14.6838 29.6459 10.3556 25.3192 10.3556 20.0005C10.3556 14.6817 14.6843 10.356 20.0026 10.356C25.3213 10.356 29.646 14.6816 29.646 20.0005C29.646 25.3193 25.3209 29.6459 20.0026 29.6459ZM20.0026 0.000718729C8.97337 0.000718729 0 8.97383 0 20.0007C0 25.2423 3.2633 33.1035 9.69762 43.3647C14.4484 50.9436 19.2659 57.1027 19.3125 57.163C19.4794 57.3751 19.7331 57.4989 20.0023 57.4989H20.0043C20.2741 57.4989 20.5272 57.3731 20.6927 57.161C20.7413 57.0984 25.5567 50.8787 30.3055 43.2702C36.7393 32.9656 40 25.1351 40 20C40 8.97388 31.0284 0.000718729 20.0026 0.000718729Z" fill="white"/>
</g>
<defs>
<clipPath id="clip0_345_6017">
<rect width="40" height="58" fill="white"/>
</clipPath>
</defs>
</svg>
