<svg width="40" height="40" viewBox="0 0 40 40" fill="none" xmlns="http://www.w3.org/2000/svg">
	<g clip-path="url(#clip0_345_6019)">
		<path d="M20 0C14.5689 0 13.888 0.0345317 11.755 0.12231C9.62642 0.219537 8.17555 0.552613 6.9036 1.0472C5.58847 1.5581 4.46866 2.24494 3.35691 3.35675C2.24513 4.46857 1.56468 5.58225 1.05369 6.8973C0.55919 8.16937 0.219721 9.62617 0.122624 11.7548C0.025085 13.8877 0 14.5686 0 19.9997C0 25.4311 0.025077 26.1117 0.122624 28.2447C0.219849 30.3733 0.55919 31.8241 1.05369 33.0962C1.56468 34.4112 2.24513 35.5249 3.35691 36.6367C4.46866 37.7485 5.58847 38.4348 6.9036 38.946C8.17555 39.4402 9.62642 39.7799 11.755 39.8771C13.888 39.9744 14.5689 39.9932 20 39.9932C25.4312 39.9932 26.112 39.9618 28.245 39.8771C30.3736 39.7799 31.8306 39.4402 33.1025 38.946C34.4176 38.4348 35.5313 37.7485 36.6431 36.6367C37.7549 35.5249 38.4353 34.4112 38.9463 33.0962C39.4408 31.8241 39.7803 30.3733 39.8774 28.2447C39.9749 26.1117 40 25.4311 40 19.9997C40 14.5686 39.9749 13.8877 39.8774 11.7548C39.7802 9.62617 39.4408 8.16937 38.9463 6.8973C38.4353 5.58225 37.7549 4.46857 36.6431 3.35675C35.5313 2.24494 34.4176 1.5581 33.1025 1.0472C31.8306 0.552613 30.3736 0.219537 28.245 0.12231C26.112 0.0250851 25.4312 0 20 0ZM20 3.6017C25.3397 3.6017 25.9708 3.63303 28.0796 3.71774C30.0293 3.80556 31.0931 4.13612 31.7978 4.40992C32.7313 4.77278 33.3951 5.20496 34.0949 5.90467C34.7947 6.60437 35.2268 7.26832 35.5895 8.20167C35.8633 8.90639 36.1927 9.97022 36.2817 11.9197C36.3777 14.0286 36.3981 14.6599 36.3981 19.9994C36.3981 25.3392 36.3761 25.9706 36.2817 28.0791C36.1926 30.0289 35.8633 31.0865 35.5895 31.7912C35.2268 32.7245 34.7947 33.3941 34.0949 34.0941C33.3951 34.7939 32.7313 35.226 31.7978 35.5889C31.0931 35.8618 30.0293 36.1864 28.0796 36.2751C25.9711 36.3723 25.3402 36.3912 20 36.3912C14.6598 36.3912 14.0289 36.3598 11.9204 36.2751C9.97069 36.1873 8.91301 35.8627 8.20832 35.5889C7.27484 35.226 6.60487 34.7939 5.90513 34.0941C5.20544 33.3941 4.77331 32.7245 4.41051 31.7912C4.13671 31.0865 3.81346 30.0289 3.72445 28.0791C3.62848 25.9706 3.60809 25.3392 3.60809 19.9994C3.60809 14.6599 3.63005 14.0286 3.72445 11.9197C3.81352 9.97022 4.13671 8.90639 4.41051 8.20167C4.77331 7.26832 5.20544 6.60437 5.90513 5.90467C6.60487 5.20496 7.27484 4.77278 8.20832 4.40992C8.91301 4.13706 9.97069 3.80681 11.9204 3.71774C14.0292 3.62052 14.6603 3.6017 20 3.6017ZM30.6768 6.92176C29.3516 6.92176 28.2756 7.9975 28.2756 9.32289C28.2756 10.6483 29.3516 11.724 30.6768 11.724C32.0023 11.724 33.078 10.6483 33.078 9.32289C33.078 7.9975 32.0023 6.92176 30.6768 6.92176ZM20 9.72716C14.3285 9.72716 9.73359 14.3284 9.73359 19.9997C9.73359 25.6714 14.3285 30.266 20 30.266C25.6715 30.266 30.2725 25.6714 30.2725 19.9997C30.2725 14.3284 25.6715 9.72716 20 9.72716ZM20 13.3351C23.6815 13.3351 26.6646 16.3184 26.6646 19.9997C26.6646 23.6814 23.6815 26.6643 20 26.6643C16.3185 26.6643 13.3354 23.6814 13.3354 19.9997C13.3354 16.3184 16.3185 13.3351 20 13.3351Z" fill="white" />
	</g>
	<defs>
		<clipPath id="clip0_345_6019">
			<rect width="40" height="40" fill="white" />
		</clipPath>
	</defs>
</svg>
