<svg width="40" height="26" viewBox="0 0 40 26" fill="none" xmlns="http://www.w3.org/2000/svg">
	<g clip-path="url(#clip0_345_6011)">
		<path d="M3.00011 0C2.60705 0 2.23422 0.0826585 1.89066 0.218677L18.8593 15.0462C19.5927 15.6869 20.374 15.6876 21.1091 15.0462L38.109 0.218677C37.7658 0.0823121 37.3926 0 36.9995 0H3.00011ZM0.0313885 2.5781C0.0122066 2.71447 0 2.85781 0 2.99977V22.9996C0 24.6615 1.33784 25.9997 3.00015 25.9997H36.9998C38.6617 25.9997 40 24.6619 40 22.9996V2.99977C40 2.85782 39.9878 2.71448 39.9686 2.57775L23.0777 17.3124C21.3154 18.8495 18.6526 18.8519 16.8902 17.3124L0.0313885 2.5781Z" fill="white" />
	</g>
	<defs>
		<clipPath id="clip0_345_6011">
			<rect width="40" height="26" fill="white" />
		</clipPath>
	</defs>
</svg>
