<svg width="40" height="74" viewBox="0 0 40 74" fill="none" xmlns="http://www.w3.org/2000/svg">
	<g clip-path="url(#clip0_345_6013)">
		<path d="M34.9022 0H5.09783C2.27426 0 0 2.27426 0 5.09783V68.6281C0 71.4517 2.27426 73.726 5.09783 73.726H34.9022C37.7257 73.726 40 71.4517 40 68.6281V5.09783C40 2.27426 37.7258 0 34.9022 0ZM18.4313 6.27474H21.5684C22.6664 6.27474 23.5292 7.13752 23.5292 8.23555C23.5292 9.33358 22.6664 10.1964 21.5684 10.1964H18.4313C17.3333 10.1964 16.4705 9.33358 16.4705 8.23555C16.4705 7.13752 17.3333 6.27474 18.4313 6.27474ZM23.137 66.6677H16.8623C15.7643 66.6677 14.9015 65.805 14.9015 64.7069C14.902 63.6089 15.7648 62.7461 16.8628 62.7461H23.1376C24.2356 62.7461 25.0984 63.6089 25.0984 64.7069C25.0978 65.805 24.2351 66.6677 23.137 66.6677ZM36.0787 58.0399H3.92134V14.1177H36.0787V58.0399Z" fill="white" />
	</g>
	<defs>
		<clipPath id="clip0_345_6013">
			<rect width="40" height="74" fill="white" />
		</clipPath>
	</defs>
</svg>
