<svg width="40" height="40" viewBox="0 0 40 40" fill="none" xmlns="http://www.w3.org/2000/svg">
	<g clip-path="url(#clip0_345_6015)">
		<path d="M0.0325579 6.59611C0.52916 10.2029 2.63931 19.5613 11.5357 28.4643C20.4388 37.3611 29.7973 39.471 33.404 39.9675C33.5573 39.9869 33.7115 39.9961 33.8661 39.9952C34.5031 39.9983 35.1268 39.816 35.6619 39.4709C36.197 39.1255 36.6203 38.6319 36.8798 38.0504L39.7006 31.8714C40.0371 31.1344 40.0919 30.3 39.8557 29.5251C39.6193 28.7501 39.1079 28.0885 38.4177 27.6646L30.811 22.9889C30.4015 22.7399 29.8747 22.8027 29.5351 23.1404L26.0454 26.6301C25.9549 26.7271 25.8265 26.7798 25.6938 26.7748C21.0594 26.5128 13.4868 18.9407 13.2252 14.3062C13.2202 14.1735 13.2729 14.0451 13.3699 13.9546L16.8596 10.4649C17.1976 10.1253 17.2601 9.59853 17.0111 9.189L12.3354 1.58233C11.9114 0.892077 11.2499 0.380704 10.4749 0.144257C9.70002 -0.0918829 8.86568 -0.0367749 8.1286 0.299737L1.94959 3.12016C1.29659 3.41388 0.756875 3.91139 0.41111 4.53821C0.0653447 5.16504 -0.0674988 5.88739 0.0325579 6.59611Z" fill="white" />
	</g>
	<defs>
		<clipPath id="clip0_345_6015">
			<rect width="40" height="40" fill="white" />
		</clipPath>
	</defs>
</svg>
